<svg version="1.2" xmlns="http://www.w3.org/2000/svg" viewBox="0 0 1500 1000" width="1500" height="1000">
	<title>2811280-ai</title>
	<defs>
		<linearGradient id="g1" x1="416.7" y1="1000" x2="416.7" y2="0" gradientUnits="userSpaceOnUse">
			<stop offset="0" stop-color="#c3c0ff"/>
			<stop offset="1" stop-color="#842792"/>
		</linearGradient>
		<linearGradient id="g2" x1="958.5" y1="209.2" x2="958.5" y2="1000" gradientUnits="userSpaceOnUse">
			<stop offset="0" stop-color="#3746d9" stop-opacity="1"/>
			<stop offset=".998" stop-color="#7d4693" stop-opacity=".4"/>
		</linearGradient>
		<linearGradient id="g3" x1="162.4" y1="63.2" x2="162.4" y2="105.4" gradientUnits="userSpaceOnUse">
			<stop offset="0" stop-color="#e6c0ff" stop-opacity="1"/>
			<stop offset="1" stop-color="#f2f2f2" stop-opacity=".4"/>
		</linearGradient>
		<linearGradient id="g4" x1="385" y1="243.3" x2="385" y2="318.4" gradientUnits="userSpaceOnUse">
			<stop offset="0" stop-color="#e6c0ff" stop-opacity="1"/>
			<stop offset="1" stop-color="#f2f2f2" stop-opacity=".4"/>
		</linearGradient>
		<linearGradient id="g5" x1="1345.3" y1="345.4" x2="1345.3" y2="387.6" gradientUnits="userSpaceOnUse">
			<stop offset="0" stop-color="#e6c0ff" stop-opacity="1"/>
			<stop offset="1" stop-color="#f2f2f2" stop-opacity=".4"/>
		</linearGradient>
		<linearGradient id="g6" x1="1158.3" y1="79.2" x2="1158.3" y2="137.9" gradientUnits="userSpaceOnUse">
			<stop offset="0" stop-color="#e6c0ff" stop-opacity="1"/>
			<stop offset="1" stop-color="#f2f2f2" stop-opacity=".4"/>
		</linearGradient>
		<linearGradient id="g7" x1="774.5" y1="1000" x2="774.5" y2="617.4" gradientUnits="userSpaceOnUse">
			<stop offset="0" stop-color="#cec0ff"/>
			<stop offset="1" stop-color="#8f27ab"/>
		</linearGradient>
		<linearGradient id="g8" x1="1060" y1="364.2" x2="636.6" y2="1097.5" gradientUnits="userSpaceOnUse">
			<stop offset="0" stop-color="#d7c0ff"/>
			<stop offset="1" stop-color="#6427a0"/>
		</linearGradient>
	</defs>
	<style>
		tspan { white-space:pre } 
		.s0 { fill: url(#g1) } 
		.s1 { fill: url(#g2) } 
		.s2 { fill: #f2f2f2 } 
		.s3 { opacity: .3;fill: url(#g3) } 
		.s4 { opacity: .3;fill: url(#g4) } 
		.s5 { opacity: .3;fill: url(#g5) } 
		.s6 { opacity: .3;fill: url(#g6) } 
		.s7 { fill: url(#g7) } 
		.s8 { fill: url(#g8) } 
		.s9 { opacity: .1;fill: #ffffff } 
	</style>
	<g id="BACKGROUND">
		<g id="&lt;Group&gt;">
			<path id="&lt;Path&gt;" class="s0" d="m1500 1000h-1500v-1000h1500z"/>
			<g id="&lt;Group&gt;">
				<path id="&lt;Path&gt;" class="s1" d="m1330.1 532.3l-61.4-56.1-62.7 61.5-139.4-143.8-214.4 201.7-79.4-52.6-181.6 152.1-215.1-176-72.4 62.3-159.7-172.5-144 149.1v442h567.2 38.8 894v-790.8z"/>
				<g id="&lt;Group&gt;" style="opacity: .5">
					<path id="&lt;Path&gt;" class="s2" d="m42.9 513.6l55.5-31.4v17.8l78.4-55.7-32.8-35.4z"/>
					<path id="&lt;Path&gt;" class="s2" d="m311 575.1l65.1-56 31.4 25.7-48.2 30.3v-22.8z"/>
					<path id="&lt;Path&gt;" class="s2" d="m750 595.7l-87.3 39.5 110.1-92.2 48.4 32.1-89 60.1z"/>
					<path id="&lt;Path&gt;" class="s2" d="m971.3 483.6l95.3-89.7 36.4 37.5-51.6 31.9-5.4-24.7z"/>
					<path id="&lt;Path&gt;" class="s2" d="m1222.2 521.8l46.5-45.6 26 23.8-34.9 16.5v-16.5z"/>
					<path id="&lt;Path&gt;" class="s2" d="m1389.4 419.6l108.4-206.1v81.9l-41.8 59.1 1.1-35.6z"/>
				</g>
			</g>
			<g id="&lt;Group&gt;" style="opacity: .7">
				<path id="&lt;Path&gt;" class="s3" d="m254.1 92.7c-7.1 0-13.4 3.4-17.5 8.6-12.6-22.7-36.8-38.1-64.6-38.1-26 0-48.8 13.5-62 33.8-7.3-8.9-18.4-14.5-30.8-14.5-16 0-29.9 9.3-36.3 22.9h62.4 10.1 118.7 4.6 35.4c-3.5-7.5-11.2-12.7-20-12.7z"/>
				<path id="&lt;Path&gt;" class="s4" d="m511.1 303.4c-6.7 0-12.8 2.5-17.5 6.7-22.5-39.9-65.3-66.8-114.4-66.8-42 0-79.4 19.7-103.5 50.4-4.8-1.6-9.9-2.5-15.3-2.5-19 0-35.4 11.1-43 27.2h43 43.1 183.9 10.6 36.9c-4.2-8.9-13.3-15-23.8-15z"/>
				<path id="&lt;Path&gt;" class="s5" d="m1437.1 375c-7.1 0-13.4 3.3-17.5 8.5-12.6-22.7-36.8-38.1-64.6-38.1-26 0-48.9 13.5-62 33.8-7.4-8.8-18.5-14.5-30.9-14.5-16 0-29.8 9.4-36.2 22.9h62.4 10.1 118.7 4.6 35.4c-3.6-7.5-11.2-12.6-20-12.6z"/>
				<path id="&lt;Path&gt;" class="s6" d="m1274.7 113.5c-12.3 0-22.7 8.4-25.8 19.7-3.7-4.3-9.3-7-15.5-7-5.2 0-10 1.9-13.7 5.2-17.6-31.2-51-52.2-89.4-52.2-32.8 0-62.1 15.4-80.9 39.4-3.7-1.3-7.8-2-11.9-2-14.9 0-27.7 8.7-33.7 21.3h33.7 33.6 143.7 8.3 25 3.9 49.3c-1.2-13.7-12.6-24.4-26.6-24.4z"/>
			</g>
			<g id="&lt;Group&gt;">
				<g id="&lt;Group&gt;" style="opacity: .5">
					<path id="&lt;Path&gt;" class="s7" d="m0 617.9c0 0 239-13.6 504 108.5 227.8 105 611.3 269.1 944 273.6h-1448z"/>
					<path id="&lt;Path&gt;" class="s8" d="m467.8 710.5c109.8-20.2 232.5-44.9 400.2-70.1 400-60.2 632 21.1 632 21.1v338.5h-52c-332.7-4.5-716.2-168.6-944-273.6q-18.2-8.3-36.2-15.9z"/>
				</g>
				<path id="&lt;Path&gt;" class="s9" d="m318 1000c0 0 120.1-154 296.1-224l79.9 34c0 0-90 86-100 190z"/>
				<path id="&lt;Path&gt;" class="s9" d="m638 786.3c0 0 102.7-62.1 64.7-119l33.6-5.8c0 0 65 62.9-25.7 155.5z"/>
			</g>
			<g id="&lt;Group&gt;" style="opacity: .3">
				<path id="&lt;Path&gt;" class="s2" d="m64.6 55.9c0 1.9-1.6 3.5-3.5 3.5-2 0-3.6-1.6-3.6-3.5 0-2 1.6-3.6 3.6-3.6 1.9 0 3.5 1.6 3.5 3.6z"/>
				<path id="&lt;Path&gt;" class="s2" d="m66.4 182c0 3-2.4 5.3-5.3 5.3-3 0-5.4-2.3-5.4-5.3 0-3 2.4-5.3 5.4-5.3 2.9 0 5.3 2.3 5.3 5.3z"/>
				<path id="&lt;Path&gt;" class="s2" d="m137.9 157.3c0 2-1.6 3.6-3.6 3.6-1.9 0-3.5-1.6-3.5-3.6 0-1.9 1.6-3.5 3.5-3.5 2 0 3.6 1.6 3.6 3.5z"/>
				<path id="&lt;Path&gt;" class="s2" d="m222.5 63c0 2-1.6 3.6-3.6 3.6-1.9 0-3.5-1.6-3.5-3.6 0-2 1.6-3.6 3.5-3.6 2 0 3.6 1.6 3.6 3.6z"/>
				<path id="&lt;Path&gt;" class="s2" d="m244.5 160.9c0 2-1.6 3.6-3.6 3.6-1.9 0-3.5-1.6-3.5-3.6 0-2 1.6-3.6 3.5-3.6 2 0 3.6 1.6 3.6 3.6z"/>
				<path id="&lt;Path&gt;" class="s2" d="m366.9 89.6c0 3-2.3 5.4-5.3 5.4-2.9 0-5.3-2.4-5.3-5.4 0-2.9 2.4-5.3 5.3-5.3 3 0 5.3 2.4 5.3 5.3z"/>
				<path id="&lt;Path&gt;" class="s2" d="m155.7 270c0 3-2.4 5.3-5.3 5.3-3 0-5.4-2.3-5.4-5.3 0-3 2.4-5.3 5.4-5.3 2.9 0 5.3 2.3 5.3 5.3z"/>
				<path id="&lt;Path&gt;" class="s2" d="m268.5 318.9c0 2-1.6 3.6-3.6 3.6-1.9 0-3.5-1.6-3.5-3.6 0-2 1.6-3.6 3.5-3.6 2 0 3.6 1.6 3.6 3.6z"/>
				<path id="&lt;Path&gt;" class="s2" d="m133.3 388.5c0 3-2.4 5.4-5.4 5.4-2.9 0-5.3-2.4-5.3-5.4 0-2.9 2.4-5.3 5.3-5.3 3 0 5.4 2.4 5.4 5.3z"/>
				<path id="&lt;Path&gt;" class="s2" d="m54.7 449.7c0 2.9-2.4 5.3-5.4 5.3-2.9 0-5.3-2.4-5.3-5.3 0-3 2.4-5.4 5.3-5.4 3 0 5.4 2.4 5.4 5.4z"/>
				<path id="&lt;Path&gt;" class="s2" d="m68.2 318.9c0 2-1.6 3.6-3.6 3.6-1.9 0-3.5-1.6-3.5-3.6 0-2 1.6-3.6 3.5-3.6 2 0 3.6 1.6 3.6 3.6z"/>
				<path id="&lt;Path&gt;" class="s2" d="m511.4 412.4c0-1.9 1.6-3.5 3.6-3.5 1.9 0 3.5 1.6 3.5 3.5 0 2-1.6 3.6-3.5 3.6-2 0-3.6-1.6-3.6-3.6z"/>
				<path id="&lt;Path&gt;" class="s2" d="m296.6 492c0-2 1.6-3.6 3.6-3.6 1.9 0 3.5 1.6 3.5 3.6 0 2-1.6 3.6-3.5 3.6-2 0-3.6-1.6-3.6-3.6z"/>
				<path id="&lt;Path&gt;" class="s2" d="m407.5 361.2c0-3 2.4-5.4 5.4-5.4 2.9 0 5.3 2.4 5.3 5.4 0 2.9-2.4 5.3-5.3 5.3-3 0-5.4-2.4-5.4-5.3z"/>
				<path id="&lt;Path&gt;" class="s2" d="m453.5 264.7c0-3 2.4-5.4 5.4-5.4 2.9 0 5.3 2.4 5.3 5.4 0 2.9-2.4 5.3-5.3 5.3-3 0-5.4-2.4-5.4-5.3z"/>
				<path id="&lt;Path&gt;" class="s2" d="m619.6 153.7c0-3 2.4-5.4 5.3-5.4 3 0 5.4 2.4 5.4 5.4 0 2.9-2.4 5.3-5.4 5.3-2.9 0-5.3-2.4-5.3-5.3z"/>
				<path id="&lt;Path&gt;" class="s2" d="m515 168.3c0-1.9 1.6-3.5 3.5-3.5 2 0 3.6 1.6 3.6 3.5 0 2-1.6 3.6-3.6 3.6-1.9 0-3.5-1.6-3.5-3.6z"/>
				<path id="&lt;Path&gt;" class="s2" d="m398.6 182c0-2 1.6-3.6 3.6-3.6 2 0 3.5 1.6 3.5 3.6 0 2-1.5 3.6-3.5 3.6-2 0-3.6-1.6-3.6-3.6z"/>
				<path id="&lt;Path&gt;" class="s2" d="m409.3 35.7c0-2 1.6-3.6 3.6-3.6 1.9 0 3.5 1.6 3.5 3.6 0 2-1.6 3.6-3.5 3.6-2 0-3.6-1.6-3.6-3.6z"/>
				<path id="&lt;Path&gt;" class="s2" d="m530.3 65.7c0-3 2.4-5.4 5.3-5.4 3 0 5.4 2.4 5.4 5.4 0 2.9-2.4 5.3-5.4 5.3-2.9 0-5.3-2.4-5.3-5.3z"/>
				<path id="&lt;Path&gt;" class="s2" d="m714.8 55.9c0 1.9-1.6 3.5-3.5 3.5-2 0-3.6-1.6-3.6-3.5 0-2 1.6-3.6 3.6-3.6 1.9 0 3.5 1.6 3.5 3.6z"/>
				<path id="&lt;Path&gt;" class="s2" d="m788.1 157.3c0 2-1.6 3.6-3.6 3.6-1.9 0-3.5-1.6-3.5-3.6 0-1.9 1.6-3.5 3.5-3.5 2 0 3.6 1.6 3.6 3.5z"/>
				<path id="&lt;Path&gt;" class="s2" d="m872.7 63c0 2-1.6 3.6-3.6 3.6-1.9 0-3.5-1.6-3.5-3.6 0-2 1.6-3.6 3.5-3.6 2 0 3.6 1.6 3.6 3.6z"/>
				<path id="&lt;Path&gt;" class="s2" d="m894.7 160.9c0 2-1.6 3.6-3.6 3.6-1.9 0-3.5-1.6-3.5-3.6 0-2 1.6-3.6 3.5-3.6 2 0 3.6 1.6 3.6 3.6z"/>
				<path id="&lt;Path&gt;" class="s2" d="m1017.1 89.6c0 3-2.3 5.4-5.3 5.4-3 0-5.3-2.4-5.3-5.4 0-2.9 2.3-5.3 5.3-5.3 3 0 5.3 2.4 5.3 5.3z"/>
				<path id="&lt;Path&gt;" class="s2" d="m805.9 270c0 3-2.4 5.3-5.3 5.3-3 0-5.4-2.3-5.4-5.3 0-3 2.4-5.3 5.4-5.3 2.9 0 5.3 2.3 5.3 5.3z"/>
				<path id="&lt;Path&gt;" class="s2" d="m918.7 318.9c0 2-1.6 3.6-3.6 3.6-1.9 0-3.5-1.6-3.5-3.6 0-2 1.6-3.6 3.5-3.6 2 0 3.6 1.6 3.6 3.6z"/>
				<path id="&lt;Path&gt;" class="s2" d="m783.5 388.5c0 3-2.4 5.4-5.4 5.4-2.9 0-5.3-2.4-5.3-5.4 0-2.9 2.4-5.3 5.3-5.3 3 0 5.4 2.4 5.4 5.3z"/>
				<path id="&lt;Path&gt;" class="s2" d="m704.9 449.7c0 2.9-2.4 5.3-5.4 5.3-2.9 0-5.3-2.4-5.3-5.3 0-3 2.4-5.4 5.3-5.4 3 0 5.4 2.4 5.4 5.4z"/>
				<path id="&lt;Path&gt;" class="s2" d="m809.5 435c0 2-1.6 3.6-3.6 3.6-2 0-3.5-1.6-3.5-3.6 0-2 1.5-3.6 3.5-3.6 2 0 3.6 1.6 3.6 3.6z"/>
				<path id="&lt;Path&gt;" class="s2" d="m718.4 318.9c0 2-1.6 3.6-3.6 3.6-1.9 0-3.5-1.6-3.5-3.6 0-2 1.6-3.6 3.5-3.6 2 0 3.6 1.6 3.6 3.6z"/>
				<path id="&lt;Path&gt;" class="s2" d="m1258 421.3c0-2.9 2.4-5.3 5.4-5.3 2.9 0 5.3 2.4 5.3 5.3 0 3-2.4 5.4-5.3 5.4-3 0-5.4-2.4-5.4-5.4z"/>
				<path id="&lt;Path&gt;" class="s2" d="m1161.6 412.4c0-1.9 1.6-3.5 3.6-3.5 1.9 0 3.5 1.6 3.5 3.5 0 2-1.6 3.6-3.5 3.6-2 0-3.6-1.6-3.6-3.6z"/>
				<path id="&lt;Path&gt;" class="s2" d="m946.8 416c0-2 1.6-3.6 3.6-3.6 1.9 0 3.5 1.6 3.5 3.6 0 2-1.6 3.6-3.5 3.6-2 0-3.6-1.6-3.6-3.6z"/>
				<path id="&lt;Path&gt;" class="s2" d="m1165.2 168.3c0-1.9 1.6-3.5 3.5-3.5 2 0 3.6 1.6 3.6 3.5 0 2-1.6 3.6-3.6 3.6-1.9 0-3.5-1.6-3.5-3.6z"/>
				<path id="&lt;Path&gt;" class="s2" d="m1059.5 35.7c0-2 1.6-3.6 3.6-3.6 1.9 0 3.5 1.6 3.5 3.6 0 2-1.6 3.6-3.5 3.6-2 0-3.6-1.6-3.6-3.6z"/>
				<path id="&lt;Path&gt;" class="s2" d="m1180.5 65.7c0-3 2.4-5.4 5.3-5.4 3 0 5.4 2.4 5.4 5.4 0 2.9-2.4 5.3-5.4 5.3-2.9 0-5.3-2.4-5.3-5.3z"/>
				<path id="&lt;Path&gt;" class="s2" d="m1256.2 284.4c0-1.9 1.6-3.5 3.6-3.5 2 0 3.6 1.6 3.6 3.5 0 2-1.6 3.6-3.6 3.6-2 0-3.6-1.6-3.6-3.6z"/>
				<path id="&lt;Path&gt;" class="s2" d="m1438.3 280.9c0-3 2.4-5.4 5.3-5.4 3 0 5.3 2.4 5.3 5.4 0 2.9-2.3 5.3-5.3 5.3-2.9 0-5.3-2.4-5.3-5.3z"/>
				<path id="&lt;Path&gt;" class="s2" d="m1333.7 337.3c0-2 1.6-3.6 3.5-3.6 2 0 3.6 1.6 3.6 3.6 0 1.9-1.6 3.5-3.6 3.5-1.9 0-3.5-1.6-3.5-3.5z"/>
				<path id="&lt;Path&gt;" class="s2" d="m1349 234.6c0-3 2.4-5.4 5.3-5.4 3 0 5.4 2.4 5.4 5.4 0 2.9-2.4 5.3-5.4 5.3-2.9 0-5.3-2.4-5.3-5.3z"/>
				<path id="&lt;Path&gt;" class="s2" d="m1294.1 70.4c0-2 1.6-3.6 3.6-3.6 1.9 0 3.5 1.6 3.5 3.6 0 2-1.6 3.6-3.5 3.6-2 0-3.6-1.6-3.6-3.6z"/>
				<path id="&lt;Path&gt;" class="s2" d="m1445.3 108.5c0-2.9 2.4-5.3 5.4-5.3 2.9 0 5.3 2.4 5.3 5.3 0 3-2.4 5.4-5.3 5.4-3 0-5.4-2.4-5.4-5.4z"/>
				<path id="&lt;Path&gt;" class="s2" d="m1386.5 157.3c0-1.9 1.6-3.5 3.6-3.5 2 0 3.6 1.6 3.6 3.5 0 2-1.6 3.6-3.6 3.6-2 0-3.6-1.6-3.6-3.6z"/>
				<path id="&lt;Path&gt;" class="s2" d="m1388.3 35.7c0-3 2.4-5.4 5.4-5.4 2.9 0 5.3 2.4 5.3 5.4 0 2.9-2.4 5.3-5.3 5.3-3 0-5.4-2.4-5.4-5.3z"/>
			</g>
		</g>
	</g>
</svg>